<?xml version="1.0" standalone="no"?>
<!DOCTYPE svg PUBLIC "-//W3C//DTD SVG 20010904//EN"
 "http://www.w3.org/TR/2001/REC-SVG-20010904/DTD/svg10.dtd">
<svg version="1.0" xmlns="http://www.w3.org/2000/svg"
 width="1089.000000pt" height="1089.000000pt" viewBox="0 0 1089.000000 1089.000000"
 preserveAspectRatio="xMidYMid meet">

<g transform="translate(0.000000,1089.000000) scale(0.100000,-0.100000)"
fill="#000000" stroke="none">
<path d="M5200 10759 c-244 -10 -580 -49 -790 -90 -573 -112 -1181 -344 -1670
-636 -239 -144 -315 -195 -595 -407 -116 -88 -302 -254 -465 -417 -426 -424
-753 -883 -1021 -1434 -280 -577 -435 -1127 -511 -1820 -21 -191 -18 -828 5
-1035 85 -762 309 -1456 675 -2090 30 -52 69 -120 87 -150 88 -154 282 -422
459 -635 120 -144 460 -487 606 -611 447 -379 944 -681 1465 -889 553 -220
1065 -335 1670 -375 520 -33 1103 21 1620 152 296 74 692 216 970 348 390 184
824 466 1175 764 146 124 486 467 606 611 177 213 371 481 459 635 18 30 57
98 87 150 366 634 590 1328 675 2090 23 207 26 844 5 1035 -76 693 -231 1243
-511 1820 -268 551 -595 1010 -1021 1434 -163 163 -349 329 -465 417 -280 212
-356 263 -595 407 -399 238 -897 445 -1364 566 -480 125 -1041 183 -1556 160z
m-22 -295 c62 -25 110 -72 144 -142 30 -60 33 -75 33 -152 -1 -66 -6 -96 -23
-135 -48 -106 -142 -166 -262 -168 -112 -2 -204 56 -262 166 -20 36 -23 57
-23 147 0 89 3 111 22 145 72 134 234 195 371 139z m887 -19 c154 -68 210
-259 126 -429 -52 -106 -135 -158 -250 -157 -79 0 -122 12 -172 47 -170 117
-155 424 26 529 81 48 178 52 270 10z m-1580 -107 c8 -42 19 -37 -168 -79
l-99 -23 6 -30 c13 -63 27 -106 35 -106 5 0 57 11 115 25 58 14 110 25 114 25
14 0 31 -91 18 -96 -6 -2 -57 -15 -114 -28 -57 -13 -106 -26 -109 -29 -3 -3 7
-56 21 -118 15 -62 23 -115 19 -119 -10 -9 -96 -30 -101 -26 -2 2 -34 131 -73
287 -49 200 -66 285 -58 290 6 4 59 16 118 28 58 12 140 30 181 40 83 20 84
20 95 -41z m2239 -8 c65 -17 141 -42 168 -57 52 -28 96 -82 116 -142 43 -125
-35 -334 -144 -386 -70 -34 -136 -31 -290 10 -77 21 -140 38 -141 39 -2 1 33
128 77 282 44 153 80 280 80 281 0 6 19 2 134 -27z m851 -300 c104 -50 124
-64 148 -101 55 -87 25 -214 -66 -272 -60 -39 -126 -37 -230 8 -44 19 -81 35
-83 35 -1 0 -19 -38 -40 -85 -21 -47 -44 -85 -51 -85 -16 0 -93 38 -93 46 0 6
23 57 110 239 34 72 78 165 98 208 43 93 30 93 207 7z m-4287 -75 c108 -32
213 -169 228 -297 25 -215 -203 -374 -401 -279 -221 106 -264 412 -75 537 76
51 163 64 248 39z m4935 -271 c56 -36 115 -78 131 -92 55 -51 70 -128 41 -200
-32 -75 -86 -112 -163 -112 l-49 0 -7 -102 c-8 -111 -15 -158 -25 -158 -3 0
-27 16 -52 34 l-45 34 7 78 c5 44 10 98 13 120 5 40 3 43 -36 69 -22 15 -43
23 -47 18 -3 -5 -30 -43 -59 -86 -29 -42 -57 -77 -63 -77 -15 0 -90 52 -87 61
8 20 324 478 331 479 4 0 54 -30 110 -66z m-2318 -144 c627 -72 1199 -268
1741 -595 388 -234 790 -587 1077 -945 116 -144 300 -415 386 -567 257 -455
429 -986 491 -1513 33 -278 30 -674 -5 -957 -154 -1227 -881 -2336 -1962
-2991 -161 -97 -500 -268 -623 -313 -408 -149 -687 -220 -1060 -271 -142 -19
-211 -22 -500 -23 -355 0 -465 8 -720 51 -431 74 -838 207 -1210 395 -1151
582 -1966 1643 -2209 2874 -168 850 -56 1730 319 2513 92 191 152 295 286 497
146 221 294 404 477 592 348 355 697 611 1147 838 495 249 1088 405 1670 439
147 8 531 -4 695 -24z m-3289 -25 c80 -47 116 -148 79 -219 -9 -16 -14 -30
-13 -31 2 0 54 -24 117 -51 63 -27 116 -54 117 -59 3 -10 -78 -75 -92 -75 -4
0 -56 23 -116 50 l-110 50 -39 -28 -39 -29 65 -83 c36 -46 65 -86 65 -90 0 -9
-73 -60 -86 -60 -16 0 -367 461 -358 470 24 21 203 149 229 163 47 26 130 22
181 -8z m6199 -268 l38 -33 -197 -222 -198 -222 -27 19 c-14 10 -34 27 -43 38
-17 18 -16 20 10 49 15 16 81 90 146 164 138 155 218 240 226 240 4 0 24 -15
45 -33z m-6865 -182 l34 -35 -109 -110 -110 -110 50 -44 50 -45 100 100 100
99 33 -26 c17 -14 32 -31 32 -37 0 -7 -43 -55 -95 -107 -52 -52 -95 -97 -95
-100 0 -3 25 -27 56 -54 l56 -49 117 117 117 117 39 -35 40 -35 -155 -155
c-85 -86 -159 -156 -163 -156 -5 0 -105 91 -224 202 l-214 201 148 149 c81 81
150 148 153 148 4 0 21 -16 40 -35z m7260 -204 c0 -9 -29 -110 -65 -225 -36
-115 -63 -211 -61 -213 3 -3 69 54 148 126 79 72 146 131 149 131 3 0 21 -19
39 -42 l34 -42 -49 -40 c-27 -23 -129 -110 -227 -195 l-180 -154 -31 39 c-18
21 -31 44 -29 52 2 7 32 106 67 220 35 113 62 208 60 210 -2 2 -55 -42 -117
-98 -62 -56 -129 -115 -149 -131 l-36 -28 -32 39 c-17 21 -31 41 -31 44 0 5
323 287 405 354 l39 32 33 -32 c18 -18 33 -39 33 -47z m-7774 -371 c17 -10 39
-67 95 -247 40 -128 76 -233 79 -233 3 0 44 52 89 115 46 63 88 115 95 115 6
0 27 -13 46 -29 l35 -29 -21 -24 c-11 -12 -69 -93 -129 -178 -60 -85 -112
-159 -116 -163 -3 -5 -23 2 -43 15 -37 23 -51 58 -116 283 -5 17 -23 76 -40
133 l-31 103 -81 -115 c-44 -64 -84 -116 -89 -116 -14 0 -79 44 -79 53 0 5 55
86 123 182 113 161 123 172 142 161 11 -7 30 -19 41 -26z m8332 -324 c61 -95
112 -178 112 -183 0 -6 -18 -22 -40 -37 l-40 -26 -46 69 -46 69 -206 -129
c-113 -71 -208 -129 -211 -129 -8 0 -64 90 -60 94 2 2 92 59 199 126 107 67
199 126 204 131 6 5 -6 31 -27 63 -20 31 -38 60 -39 65 -3 11 60 60 77 60 6 0
61 -78 123 -173z m-8832 -1181 c15 -24 14 -33 -30 -192 -135 -494 -179 -805
-180 -1273 -1 -467 42 -785 169 -1255 139 -512 410 -1057 741 -1491 70 -91 79
-121 49 -154 -19 -21 -41 -25 -70 -14 -37 15 -282 367 -415 599 -264 459 -463
1028 -549 1570 -74 470 -75 1001 -1 1460 48 301 156 720 196 760 24 24 71 19
90 -10z m9023 -55 c21 -11 29 -30 70 -165 73 -242 133 -538 168 -830 25 -214
25 -786 0 -1000 -42 -350 -110 -659 -217 -985 -151 -459 -373 -885 -668 -1282
-97 -131 -104 -138 -136 -138 -36 0 -66 27 -66 60 0 9 43 74 96 146 512 693
805 1482 875 2358 15 190 6 684 -15 856 -33 263 -104 610 -166 810 -36 117
-37 144 -8 164 26 18 42 20 67 6z m-5454 -5833 c36 -10 51 -19 53 -33 9 -61
58 -590 56 -593 -2 -2 -29 1 -59 8 -51 11 -55 15 -55 40 0 16 -3 42 -6 59 -6
30 -9 31 -112 56 -58 14 -107 24 -107 23 -1 -1 -14 -23 -29 -49 -31 -54 -27
-52 -96 -36 -33 8 -49 16 -46 24 5 14 302 481 318 502 13 15 20 15 83 -1z
m2005 -252 c89 -140 161 -258 161 -262 -1 -7 -81 -32 -104 -33 -4 0 -21 23
-38 51 -26 41 -36 50 -53 45 -11 -3 -55 -13 -96 -22 -41 -9 -79 -20 -85 -25
-5 -5 -12 -33 -15 -61 l-5 -52 -54 -13 c-29 -8 -56 -12 -59 -9 -4 5 41 487 55
578 5 34 9 38 47 47 85 19 71 33 246 -244z m-1266 160 c64 -17 134 -60 159
-99 16 -24 16 -25 -34 -57 -46 -29 -52 -31 -61 -16 -19 35 -63 66 -108 77
-121 29 -203 -77 -89 -117 19 -6 73 -23 121 -37 112 -34 162 -77 173 -147 13
-85 -43 -167 -134 -198 -57 -19 -183 -14 -247 10 -58 22 -150 100 -139 118 3
5 25 21 49 34 l45 25 23 -25 c91 -98 278 -94 278 6 0 29 -30 45 -158 84 -124
38 -163 64 -183 125 -14 43 -5 106 22 143 52 74 167 104 283 74z m567 3 c0 -2
13 -132 27 -290 23 -237 25 -289 14 -293 -21 -8 -102 -6 -102 3 0 4 -11 126
-25 272 -14 146 -25 275 -25 288 0 20 5 22 55 22 30 0 55 -1 56 -2z"/>
<path d="M4994 10361 c-23 -10 -52 -34 -65 -52 -21 -30 -24 -45 -24 -119 0
-99 18 -146 72 -187 27 -21 46 -26 91 -27 74 -1 119 24 150 84 20 38 23 56 19
115 -2 45 -11 85 -25 111 -40 79 -138 113 -218 75z"/>
<path d="M5874 10351 c-68 -31 -104 -100 -104 -201 0 -112 65 -185 165 -184
64 0 108 24 142 75 21 32 27 55 31 117 5 100 -21 155 -88 190 -53 27 -92 28
-146 3z"/>
<path d="M6677 10223 c-2 -5 -26 -82 -52 -173 -26 -91 -49 -170 -52 -176 -5
-15 111 -44 173 -44 42 0 51 4 84 39 25 26 42 57 53 98 21 72 21 104 3 147
-20 49 -53 74 -124 96 -71 22 -79 23 -85 13z"/>
<path d="M7432 9885 c-23 -47 -42 -87 -42 -90 0 -8 94 -52 127 -59 43 -10 86
14 107 58 9 19 16 39 16 45 0 33 -29 63 -90 95 -38 20 -70 36 -72 36 -2 0 -23
-38 -46 -85z"/>
<path d="M3123 9839 c-45 -22 -77 -64 -88 -117 -16 -76 64 -216 142 -248 73
-31 164 -3 205 64 55 89 -6 248 -115 301 -55 26 -91 26 -144 0z"/>
<path d="M8100 9536 l-50 -75 68 -41 c38 -22 78 -40 91 -40 36 0 81 52 81 93
0 29 -7 42 -39 69 -22 18 -53 41 -70 51 l-30 18 -51 -75z"/>
<path d="M5100 9429 c-773 -63 -1509 -340 -2127 -800 -605 -451 -1082 -1075
-1348 -1764 -305 -789 -344 -1644 -115 -2462 251 -890 826 -1680 1615 -2215
138 -94 233 -151 244 -146 9 3 325 379 342 406 8 13 -2 54 -39 167 -61 183
-87 325 -80 444 5 71 17 122 72 289 119 364 149 529 149 822 0 209 -13 324
-59 528 -32 144 -107 373 -169 515 l-47 107 -757 0 c-840 0 -801 -3 -801 64 0
61 13 65 231 68 l194 3 7 117 c29 502 199 1039 459 1456 311 499 764 911 1289
1172 375 187 790 308 1152 335 86 7 87 7 97 37 41 118 185 185 307 144 214
-71 226 -345 20 -446 l-31 -15 0 -100 0 -100 65 -7 c238 -24 298 -32 410 -54
532 -103 1020 -363 1405 -749 326 -327 543 -694 670 -1134 53 -186 75 -315
100 -593 l7 -68 264 0 c251 0 265 -1 284 -20 28 -28 25 -64 -6 -89 -26 -21
-36 -21 -568 -21 l-542 0 -109 -132 c-60 -73 -184 -223 -275 -333 -171 -206
-282 -340 -600 -725 -102 -124 -250 -303 -330 -400 -80 -96 -154 -187 -165
-201 -11 -15 -101 -125 -200 -244 -99 -120 -234 -284 -300 -365 -312 -382
-470 -575 -579 -709 -65 -80 -137 -168 -159 -194 -89 -106 -105 -135 -165
-297 -33 -91 -62 -172 -64 -180 -4 -19 117 -35 384 -50 856 -48 1747 195 2468
675 312 207 575 436 811 705 737 841 1077 1904 963 3008 -120 1161 -787 2237
-1794 2894 -508 332 -1063 540 -1665 627 -278 40 -643 52 -915 30z"/>
<path d="M5574 8581 c-93 -57 -50 -201 60 -201 91 0 147 78 111 154 -30 64
-108 85 -171 47z"/>
<path d="M5340 8414 c-14 -2 -65 -9 -115 -15 -398 -48 -853 -207 -1210 -422
-629 -378 -1103 -962 -1319 -1625 -95 -292 -156 -613 -156 -824 l0 -78 190 0
190 0 0 53 c0 28 7 109 15 178 48 412 186 794 412 1139 114 174 193 271 353
430 466 466 1053 735 1730 791 74 6 138 13 142 16 5 2 8 46 8 98 l0 93 -55 31
c-40 23 -65 47 -91 86 -34 55 -38 57 -94 49z"/>
<path d="M5432 7895 c-195 -51 -362 -154 -528 -327 -168 -174 -281 -347 -396
-603 -67 -151 -158 -402 -158 -436 0 -27 232 -137 430 -203 254 -86 495 -133
700 -138 l95 -3 0 865 0 865 -25 2 c-14 1 -67 -8 -118 -22z"/>
<path d="M5707 7914 c-4 -4 -7 -394 -7 -866 0 -779 1 -859 16 -865 26 -10 328
25 463 53 121 25 395 110 496 154 114 49 255 124 255 136 0 54 -121 366 -207
537 -192 378 -436 644 -708 771 -109 51 -290 98 -308 80z"/>
<path d="M4888 7815 c-311 -91 -631 -258 -887 -463 -105 -84 -311 -279 -311
-294 0 -36 221 -243 400 -373 128 -94 139 -100 145 -83 2 7 23 67 46 133 76
220 202 481 311 643 121 179 293 366 410 443 57 38 34 37 -114 -6z"/>
<path d="M6295 7808 c70 -53 229 -215 302 -309 136 -173 287 -454 382 -712 28
-75 51 -143 51 -150 0 -7 6 -21 13 -31 12 -16 23 -10 137 73 121 87 279 226
369 323 l43 47 -57 65 c-256 293 -751 594 -1150 702 -157 42 -157 42 -90 -8z"/>
<path d="M3538 6873 c-270 -377 -418 -749 -474 -1193 -7 -63 -14 -140 -14
-172 l0 -58 504 0 504 0 6 108 c18 301 45 512 98 754 17 82 30 149 27 151
-175 111 -360 258 -491 390 -53 53 -99 97 -101 97 -2 0 -29 -35 -59 -77z"/>
<path d="M7580 6854 c-108 -109 -296 -264 -416 -342 l-81 -53 23 -97 c51 -211
103 -592 104 -762 0 -41 3 -92 6 -112 l7 -38 503 0 c397 0 504 3 504 13 0 50
-24 262 -40 352 -56 319 -155 588 -310 845 -65 109 -169 258 -192 278 -11 9
-34 -9 -108 -84z"/>
<path d="M4300 6352 c-47 -166 -109 -658 -110 -865 l0 -37 693 2 692 3 3 289
c1 167 -2 294 -7 299 -5 5 -62 13 -128 18 -359 26 -673 110 -1015 272 l-118
55 -10 -36z"/>
<path d="M6860 6338 c-216 -103 -454 -185 -655 -227 -120 -24 -318 -51 -383
-51 -26 0 -64 -3 -85 -6 l-37 -7 2 -296 3 -296 693 -3 692 -2 0 27 c-1 71 -22
341 -36 453 -16 130 -71 426 -82 447 -5 8 -39 -4 -112 -39z"/>
<path d="M3713 5314 c-29 -7 -29 -8 6 -90 165 -388 247 -834 222 -1196 -18
-247 -55 -418 -154 -713 -83 -247 -87 -339 -25 -567 12 -43 25 -78 29 -78 4 0
17 30 29 68 73 220 194 399 375 550 96 80 156 122 405 284 143 93 317 226 374
287 l29 30 -84 -6 c-105 -7 -184 8 -274 51 -88 42 -152 98 -210 186 -81 122
-102 191 -140 473 -29 211 -99 439 -167 542 -45 68 -130 131 -208 156 -66 20
-167 31 -207 23z"/>
<path d="M4140 5316 c0 -3 22 -27 49 -55 110 -113 203 -388 246 -726 20 -158
28 -190 70 -282 43 -93 110 -164 193 -205 55 -27 78 -33 156 -36 107 -5 186
17 272 74 64 42 89 75 144 183 63 126 101 234 185 518 83 284 138 414 206 487
l42 46 -782 0 c-429 0 -781 -2 -781 -4z"/>
<path d="M6271 5307 c-23 -29 -201 -446 -201 -473 0 -8 463 464 468 477 2 5
-55 9 -126 9 -96 0 -132 -3 -141 -13z"/>
<path d="M7327 5298 c-36 -14 -83 -44 -122 -78 -56 -50 -468 -436 -924 -870
-96 -91 -229 -216 -295 -279 -67 -63 -126 -124 -133 -136 -11 -21 -30 -196
-36 -342 -3 -76 -12 -95 -53 -107 -14 -4 -31 1 -49 16 l-28 22 6 140 c20 460
163 1037 381 1533 l44 102 -45 7 c-109 16 -230 -22 -301 -96 -74 -77 -114
-176 -211 -516 -79 -275 -137 -422 -234 -587 -155 -263 -340 -439 -708 -674
-367 -234 -504 -365 -613 -581 -44 -87 -89 -219 -109 -320 -9 -40 -21 -82 -29
-92 -7 -10 -95 -118 -196 -239 -100 -122 -180 -226 -177 -232 19 -29 389 -193
595 -262 197 -67 612 -170 623 -156 2 2 36 92 76 199 40 107 79 206 88 219 15
23 217 273 353 436 36 44 167 204 290 355 123 151 346 424 496 606 150 181
299 364 332 405 33 40 121 148 197 239 75 91 214 260 310 375 95 116 257 311
359 435 408 493 389 468 364 481 -13 7 -61 14 -108 16 -69 2 -96 -1 -143 -19z"/>
<path d="M6725 5280 c-43 -17 -85 -54 -261 -232 -501 -508 -483 -488 -504
-559 -28 -92 -72 -295 -68 -313 3 -16 64 39 458 414 102 97 259 245 350 330
273 256 345 328 338 335 -16 17 -147 45 -203 44 -34 0 -82 -8 -110 -19z"/>
<path d="M2417 9389 c-32 -22 -57 -45 -57 -51 0 -5 23 -39 51 -74 l51 -64 57
45 c72 54 89 90 67 134 -34 64 -89 68 -169 10z"/>
<path d="M4399 865 c-36 -60 -65 -111 -63 -113 3 -5 116 -31 134 -32 13 0 15
13 12 78 -2 42 -7 100 -11 127 l-7 50 -65 -110z"/>
<path d="M6309 934 c0 -21 -4 -81 -7 -132 -4 -50 -3 -92 2 -92 11 0 130 31
134 35 3 3 -113 211 -124 224 -2 2 -4 -13 -5 -35z"/>
</g>
</svg>
